<svg width="128" height="128" viewBox="0 0 128 128" fill="none" xmlns="http://www.w3.org/2000/svg">
<path d="M30.1311 20.4305H50.0859V76.1346C50.0859 101.237 38.0045 110 18.7041 110C13.9801 110 7.93669 109.216 4 107.907L6.23434 91.8223C8.99002 92.7388 12.5384 93.3905 16.4751 93.3905C24.8804 93.3905 30.1311 89.5971 30.1311 76.0022V20.4305ZM67.4127 88.1666C72.6634 90.911 81.0688 93.6607 89.6018 93.6607C98.7945 93.6607 103.652 89.8673 103.652 83.9864C103.652 78.6247 99.4489 75.3558 88.8145 71.6948C74.1104 66.4656 64.3963 58.3595 64.3963 45.411C64.3963 30.375 77.1321 19 97.8742 19C107.982 19 115.206 20.9603 120.457 23.4451L115.994 39.3976C112.578 37.697 106.147 35.2122 97.6135 35.2122C88.9475 35.2122 84.7448 39.2652 84.7448 43.7103C84.7448 49.3316 89.6018 51.8164 101.157 56.2615C116.781 62.0152 124 70.1213 124 82.6724C124 97.4488 112.711 110 88.4208 110C78.3131 110 68.333 107.256 63.343 104.506L67.4127 88.1666Z" fill="#B7B73B"/>
</svg>
