<svg width="128" height="128" viewBox="0 0 128 128" fill="none" xmlns="http://www.w3.org/2000/svg">
<path d="M21.3333 96V76.2667C21.3333 71.8485 17.7516 68.2667 13.3333 68.2667H10.6666V59.7333H13.3333C17.7516 59.7333 21.3333 56.1515 21.3333 51.7333V32C21.3333 23.1635 28.4968 16 37.3333 16H42.6666V26.6667H37.3333C34.3878 26.6667 32 29.0545 32 32V53.8667C32 58.5909 28.9284 62.5984 24.6732 64C28.9284 65.4016 32 69.4091 32 74.1333V96C32 98.9456 34.3878 101.333 37.3333 101.333H42.6666V112H37.3333C28.4968 112 21.3333 104.837 21.3333 96ZM106.667 76.2667V96C106.667 104.837 99.5034 112 90.6666 112H85.3333V101.333H90.6666C93.6122 101.333 96 98.9456 96 96V74.1333C96 69.4091 99.0714 65.4016 103.327 64C99.0714 62.5984 96 58.5909 96 53.8667V32C96 29.0545 93.6122 26.6667 90.6666 26.6667H85.3333V16H90.6666C99.5034 16 106.667 23.1635 106.667 32V51.7333C106.667 56.1515 110.248 59.7333 114.667 59.7333H117.333V68.2667H114.667C110.248 68.2667 106.667 71.8485 106.667 76.2667Z" fill="#E44D26"/>
</svg>
