<svg width="128" height="128" viewBox="0 0 128 128" fill="none" xmlns="http://www.w3.org/2000/svg">
<path d="M117.887 59.0125L69 10.1125C67.6466 8.76038 65.8118 8.00085 63.8987 8.00085C61.9856 8.00085 60.1508 8.76038 58.7975 10.1125L48.6325 20.27L61.5125 33.15C68.2775 30.865 74.6825 37.3425 72.36 44.07L84.775 56.485C93.3325 53.535 100.07 64.235 93.6425 70.6575C87.02 77.28 76.09 69.94 79.6425 61.3225L68.055 49.75V80.2125C74.38 83.3475 73.62 90.675 70.325 93.9625C68.7151 95.5714 66.5322 96.4753 64.2562 96.4753C61.9802 96.4753 59.7973 95.5714 58.1875 93.9625C53.795 89.5625 55.42 82.235 61 79.9625V49.2125C55.8 47.085 54.85 41.5275 56.34 37.9625L43.6425 25.25L10.1125 58.785C8.7597 60.1381 7.99976 61.973 7.99976 63.8863C7.99976 65.7995 8.7597 67.6345 10.1125 68.9875L59.015 117.888C60.3679 119.24 62.2023 119.999 64.115 119.999C66.0276 119.999 67.862 119.24 69.215 117.888L117.887 69.215C119.24 67.862 120 66.027 120 64.1138C120 62.2005 119.24 60.3656 117.887 59.0125Z" fill="#F34F29"/>
</svg>
