<svg width="128" height="128" viewBox="0 0 128 128" fill="none" xmlns="http://www.w3.org/2000/svg">
<path d="M11.5 4H116.5C120.64 4 124 7.36 124 11.5V116.5C124 120.64 120.64 124 116.5 124H11.5C9.51088 124 7.60322 123.21 6.1967 121.803C4.79018 120.397 4 118.489 4 116.5V11.5C4 7.36 7.36 4 11.5 4ZM71.5 66.8133V56.5H30.2467V66.8133H44.98V112.747H56.7V66.8133H71.5ZM75.48 113.267C77.6866 114.425 80.0556 115.243 82.5067 115.693C85.22 116.227 88.0667 116.5 91.0667 116.5C93.9867 116.5 96.7667 116.2 99.3933 115.613C102.02 115.02 104.327 114.033 106.313 112.68C108.293 111.307 109.913 109.48 111.02 107.333C112.173 105.133 112.753 102.42 112.753 99.18C112.753 96.84 112.42 94.78 111.76 93.0133C111.113 91.28 110.147 89.68 108.9 88.3C107.584 86.8665 106.076 85.6215 104.42 84.6C102.533 83.4309 100.566 82.3972 98.5333 81.5067C96.9333 80.8067 95.4933 80.12 94.2267 79.46C93.0889 78.8815 92.0047 78.2033 90.9867 77.4333C90.1774 76.8331 89.4801 76.0952 88.9267 75.2533C88.4418 74.4714 88.1919 73.5666 88.2067 72.6467C88.2067 71.7533 88.4267 70.9467 88.8533 70.2333C89.3171 69.489 89.944 68.8598 90.6867 68.3933C91.4733 67.88 92.4333 67.4867 93.58 67.2C94.7267 66.92 95.9933 66.7733 97.3933 66.7733C100.839 66.8092 104.238 67.5821 107.36 69.04C108.44 69.5533 109.433 70.1467 110.353 70.82V58.7333C108.395 57.9491 106.356 57.3856 104.273 57.0533C101.77 56.6661 99.2395 56.4833 96.7067 56.5067C93.8067 56.5067 91.0667 56.84 88.4733 57.5C85.8867 58.1667 83.6067 59.1933 81.6333 60.5933C79.6739 61.9865 78.0742 63.8261 76.9667 65.96C75.82 68.1267 75.2533 70.72 75.2533 73.74C75.2533 77.6067 76.3 80.8867 78.3867 83.6133C80.4933 86.34 83.6733 88.6467 87.94 90.5333C89.6133 91.2667 91.18 91.9733 92.6267 92.6733C94.0733 93.38 95.3267 94.1067 96.38 94.86C97.4333 95.6133 98.2667 96.44 98.88 97.3267C99.4914 98.2212 99.8105 99.2833 99.7933 100.367C99.8015 101.204 99.5935 102.029 99.1894 102.763C98.7853 103.496 98.1989 104.113 97.4867 104.553C96.7133 105.08 95.7533 105.487 94.5933 105.787C93.2616 106.104 91.8955 106.254 90.5267 106.233C87.8426 106.224 85.1831 105.722 82.68 104.753C80.0282 103.73 77.5874 102.227 75.48 100.32V113.273V113.267Z" fill="#3178C6"/>
</svg>
