<svg width="128" height="128" viewBox="0 0 128 128" fill="none" xmlns="http://www.w3.org/2000/svg">
<path d="M104.374 25.7097C108.47 26.6621 112.191 28.8057 115.07 31.87C116.655 33.5284 118.032 35.3743 119.169 37.3667C119.222 37.5831 111.788 42.5748 107.28 45.3592C107.116 45.4698 106.467 44.7629 105.731 43.6761C104.907 42.2611 103.738 41.0779 102.333 40.2369C100.928 39.3959 99.3322 38.9246 97.6954 38.8671C92.5135 38.5112 89.1743 41.2235 89.1984 45.7583C89.1536 46.8724 89.4078 47.9783 89.9345 48.9611C91.0749 51.3175 93.1919 52.7314 99.8413 55.612C112.082 60.8778 117.336 64.3499 120.579 69.2839C122.412 72.4014 123.541 75.8817 123.886 79.4812C124.232 83.0806 123.786 86.7121 122.58 90.1212C120.923 93.8599 118.294 97.087 114.967 99.4674C111.64 101.848 107.737 103.295 103.662 103.659C99.3298 104.155 94.9528 104.11 90.6322 103.524C84.014 102.437 77.9174 99.2621 73.234 94.4637C71.4644 92.4721 69.9662 90.2551 68.7786 87.8706C69.278 87.4993 69.8038 87.165 70.3519 86.8704C71.1122 86.4375 73.9894 84.7833 76.7031 83.2107L81.63 80.3253L82.6596 81.8257C84.3939 84.3045 86.6013 86.416 89.1551 88.0389C91.7342 89.4528 94.6556 90.1229 97.5934 89.9743C100.531 89.8257 103.37 88.8643 105.793 87.1974C107.043 85.9797 107.824 84.3613 108 82.6257C108.176 80.8901 107.736 79.1479 106.755 77.7044C105.427 75.8049 102.714 74.2083 95.001 70.866C88.9533 68.8278 83.4448 65.4495 78.8875 60.9836C76.7171 58.5116 75.1143 55.5949 74.1915 52.438C73.5091 48.8418 73.4084 45.1594 73.8932 41.5312C74.7986 37.3563 76.9663 33.5604 80.1025 30.6581C83.2387 27.7558 87.1918 25.8872 91.4261 25.3057C95.7378 24.7908 100.103 24.9269 104.374 25.7097ZM64.2318 32.8414L64.2847 39.8337H42.0077V103.062H26.2983V39.8481H4.02132V32.9809C3.96208 30.6291 4.02632 28.2759 4.21378 25.9309C4.29558 25.8203 17.8398 25.7674 34.2613 25.7962L64.1452 25.878L64.2318 32.8414Z" fill="#007ACC"/>
</svg>
