<svg width="128" height="127" viewBox="0 0 128 127" fill="none" xmlns="http://www.w3.org/2000/svg">
<path d="M85.5976 4.03537L35.5621 13.8137C35.1623 13.8918 34.8 14.1002 34.5319 14.406C34.2638 14.7119 34.1053 15.098 34.0812 15.5036L31.0033 67.3486C30.9309 68.5698 32.0554 69.5175 33.2504 69.2426L47.181 66.0362C48.4844 65.7364 49.6621 66.8813 49.3942 68.1886L45.2554 88.4016C44.9769 89.762 46.2575 90.9253 47.5896 90.5218L56.1938 87.9145C57.5277 87.5107 58.8094 88.6772 58.5272 90.0387L51.9499 121.789C51.5384 123.775 54.1871 124.858 55.2917 123.155L56.0295 122.018L96.8012 40.8668C97.484 39.5083 96.3066 37.9587 94.8103 38.2464L80.4711 41.0068C79.1236 41.2659 77.9771 40.0144 78.3574 38.6994L87.7164 6.34168C88.0971 5.02452 86.9465 3.77186 85.5976 4.03537Z" fill="#B7B73B"/>
</svg>
